<svg width="366" height="426" viewBox="0 0 366 426" xmlns="http://www.w3.org/2000/svg">
  <path d="M0 0 L366 0 L366 426 L0 426" stroke="none" stroke-width="0.0" fill="#ffffff" />
  <path d="M167.29 76.45 C156.75 89.5, 146.21 102.55, 114.71 141.55" stroke="#000000" stroke-width="2.0" fill="none" />
  <path d="M198.71 76.45 C209.25 89.5, 219.79 102.55, 251.29 141.55" stroke="#000000" stroke-width="2.0" fill="none" />
  <path d="M89.64 184.18 C84.97 195.74, 80.31 207.29, 66.36 241.82" stroke="#000000" stroke-width="2.0" fill="none" />
  <path d="M108.36 184.18 C113.03 195.74, 117.69 207.29, 131.64 241.82" stroke="#000000" stroke-width="2.0" fill="none" />
  <path d="M257.64 184.18 C252.97 195.74, 248.31 207.29, 234.36 241.82" stroke="#000000" stroke-width="2.0" fill="none" />
  <path d="M276.36 184.18 C281.03 195.74, 285.69 207.29, 299.64 241.82" stroke="#000000" stroke-width="2.0" fill="none" />
  <path d="M57.0 290.0 C57.0 300.83, 57.0 311.65, 57.0 344.0" stroke="#000000" stroke-width="2.0" fill="none" />
  <path d="M225.0 290.0 C225.0 300.83, 225.0 311.65, 225.0 344.0" stroke="#000000" stroke-width="2.0" fill="none" />
  <path d="M208.0 57.0 C208.0 58.3, 207.85 60.06, 207.62 61.34 C207.39 62.62, 206.94 64.33, 206.49 65.55 C206.05 66.77, 205.3 68.37, 204.65 69.5 C204.0 70.63, 202.99 72.07, 202.15 73.07 C201.31 74.07, 200.07 75.31, 199.07 76.15 C198.07 76.99, 196.63 78.0, 195.5 78.65 C194.37 79.3, 192.77 80.05, 191.55 80.49 C190.33 80.94, 188.62 81.39, 187.34 81.62 C186.06 81.85, 184.3 82.0, 183.0 82.0 C181.7 82.0, 179.94 81.85, 178.66 81.62 C177.38 81.39, 175.67 80.94, 174.45 80.49 C173.23 80.05, 171.63 79.3, 170.5 78.65 C169.37 78.0, 167.93 76.99, 166.93 76.15 C165.93 75.31, 164.69 74.07, 163.85 73.07 C163.01 72.07, 162.0 70.63, 161.35 69.5 C160.7 68.37, 159.95 66.77, 159.51 65.55 C159.06 64.33, 158.61 62.62, 158.38 61.34 C158.15 60.06, 158.0 58.3, 158.0 57.0 C158.0 55.7, 158.15 53.94, 158.38 52.66 C158.61 51.38, 159.06 49.67, 159.51 48.45 C159.95 47.23, 160.7 45.63, 161.35 44.5 C162.0 43.37, 163.01 41.93, 163.85 40.93 C164.69 39.93, 165.93 38.69, 166.93 37.85 C167.93 37.01, 169.37 36.0, 170.5 35.35 C171.63 34.7, 173.23 33.95, 174.45 33.51 C175.67 33.06, 177.38 32.61, 178.66 32.38 C179.94 32.15, 181.7 32.0, 183.0 32.0 C184.3 32.0, 186.06 32.15, 187.34 32.38 C188.62 32.61, 190.33 33.06, 191.55 33.51 C192.77 33.95, 194.37 34.7, 195.5 35.35 C196.63 36.0, 198.07 37.01, 199.07 37.85 C200.07 38.69, 201.31 39.93, 202.15 40.93 C202.99 41.93, 204.0 43.37, 204.65 44.5 C205.3 45.63, 206.05 47.23, 206.49 48.45 C206.94 49.67, 207.39 51.38, 207.62 52.66 C207.85 53.94, 207.94 56.35, 208.0 57.0 C208.06 57.65, 208.06 56.35, 208.0 57.0" stroke="#000000" stroke-width="2.0" fill="none" />
  <path d="M124.0 161.0 C124.0 162.3, 123.85 164.06, 123.62 165.34 C123.39 166.62, 122.94 168.33, 122.49 169.55 C122.05 170.77, 121.3 172.37, 120.65 173.5 C120.0 174.63, 118.99 176.07, 118.15 177.07 C117.31 178.07, 116.07 179.31, 115.07 180.15 C114.07 180.99, 112.63 182.0, 111.5 182.65 C110.37 183.3, 108.77 184.05, 107.55 184.49 C106.33 184.94, 104.62 185.39, 103.34 185.62 C102.06 185.85, 100.3 186.0, 99.0 186.0 C97.7 186.0, 95.94 185.85, 94.66 185.62 C93.38 185.39, 91.67 184.94, 90.45 184.49 C89.23 184.05, 87.63 183.3, 86.5 182.65 C85.37 182.0, 83.93 180.99, 82.93 180.15 C81.93 179.31, 80.69 178.07, 79.85 177.07 C79.01 176.07, 78.0 174.63, 77.35 173.5 C76.7 172.37, 75.95 170.77, 75.51 169.55 C75.06 168.33, 74.61 166.62, 74.38 165.34 C74.15 164.06, 74.0 162.3, 74.0 161.0 C74.0 159.7, 74.15 157.94, 74.38 156.66 C74.61 155.38, 75.06 153.67, 75.51 152.45 C75.95 151.23, 76.7 149.63, 77.35 148.5 C78.0 147.37, 79.01 145.93, 79.85 144.93 C80.69 143.93, 81.93 142.69, 82.93 141.85 C83.93 141.01, 85.37 140.0, 86.5 139.35 C87.63 138.7, 89.23 137.95, 90.45 137.51 C91.67 137.06, 93.38 136.61, 94.66 136.38 C95.94 136.15, 97.7 136.0, 99.0 136.0 C100.3 136.0, 102.06 136.15, 103.34 136.38 C104.62 136.61, 106.33 137.06, 107.55 137.51 C108.77 137.95, 110.37 138.7, 111.5 139.35 C112.63 140.0, 114.07 141.01, 115.07 141.85 C116.07 142.69, 117.31 143.93, 118.15 144.93 C118.99 145.93, 120.0 147.37, 120.65 148.5 C121.3 149.63, 122.05 151.23, 122.49 152.45 C122.94 153.67, 123.39 155.38, 123.62 156.66 C123.85 157.94, 123.94 160.35, 124.0 161.0 C124.06 161.65, 124.06 160.35, 124.0 161.0" stroke="#000000" stroke-width="2.0" fill="none" />
  <path d="M292.0 161.0 C292.0 162.3, 291.85 164.06, 291.62 165.34 C291.39 166.62, 290.94 168.33, 290.49 169.55 C290.05 170.77, 289.3 172.37, 288.65 173.5 C288.0 174.63, 286.99 176.07, 286.15 177.07 C285.31 178.07, 284.07 179.31, 283.07 180.15 C282.07 180.99, 280.63 182.0, 279.5 182.65 C278.37 183.3, 276.77 184.05, 275.55 184.49 C274.33 184.94, 272.62 185.39, 271.34 185.62 C270.06 185.85, 268.3 186.0, 267.0 186.0 C265.7 186.0, 263.94 185.85, 262.66 185.62 C261.38 185.39, 259.67 184.94, 258.45 184.49 C257.23 184.05, 255.63 183.3, 254.5 182.65 C253.37 182.0, 251.93 180.99, 250.93 180.15 C249.93 179.31, 248.69 178.07, 247.85 177.07 C247.01 176.07, 246.0 174.63, 245.35 173.5 C244.7 172.37, 243.95 170.77, 243.51 169.55 C243.06 168.33, 242.61 166.62, 242.38 165.34 C242.15 164.06, 242.0 162.3, 242.0 161.0 C242.0 159.7, 242.15 157.94, 242.38 156.66 C242.61 155.38, 243.06 153.67, 243.51 152.45 C243.95 151.23, 244.7 149.63, 245.35 148.5 C246.0 147.37, 247.01 145.93, 247.85 144.93 C248.69 143.93, 249.93 142.69, 250.93 141.85 C251.93 141.01, 253.37 140.0, 254.5 139.35 C255.63 138.7, 257.23 137.95, 258.45 137.51 C259.67 137.06, 261.38 136.61, 262.66 136.38 C263.94 136.15, 265.7 136.0, 267.0 136.0 C268.3 136.0, 270.06 136.15, 271.34 136.38 C272.62 136.61, 274.33 137.06, 275.55 137.51 C276.77 137.95, 278.37 138.7, 279.5 139.35 C280.63 140.0, 282.07 141.01, 283.07 141.85 C284.07 142.69, 285.31 143.93, 286.15 144.93 C286.99 145.93, 288.0 147.37, 288.65 148.5 C289.3 149.63, 290.05 151.23, 290.49 152.45 C290.94 153.67, 291.39 155.38, 291.62 156.66 C291.85 157.94, 291.94 160.35, 292.0 161.0 C292.06 161.65, 292.06 160.35, 292.0 161.0" stroke="#000000" stroke-width="2.0" fill="none" />
  <path d="M82.0 265.0 C82.0 266.3, 81.85 268.06, 81.62 269.34 C81.39 270.62, 80.94 272.33, 80.49 273.55 C80.05 274.77, 79.3 276.37, 78.65 277.5 C78.0 278.63, 76.99 280.07, 76.15 281.07 C75.31 282.07, 74.07 283.31, 73.07 284.15 C72.07 284.99, 70.63 286.0, 69.5 286.65 C68.37 287.3, 66.77 288.05, 65.55 288.49 C64.33 288.94, 62.62 289.39, 61.34 289.62 C60.06 289.85, 58.3 290.0, 57.0 290.0 C55.7 290.0, 53.94 289.85, 52.66 289.62 C51.38 289.39, 49.67 288.94, 48.45 288.49 C47.23 288.05, 45.63 287.3, 44.5 286.65 C43.37 286.0, 41.93 284.99, 40.93 284.15 C39.93 283.31, 38.69 282.07, 37.85 281.07 C37.01 280.07, 36.0 278.63, 35.35 277.5 C34.7 276.37, 33.95 274.77, 33.51 273.55 C33.06 272.33, 32.61 270.62, 32.38 269.34 C32.15 268.06, 32.0 266.3, 32.0 265.0 C32.0 263.7, 32.15 261.94, 32.38 260.66 C32.61 259.38, 33.06 257.67, 33.51 256.45 C33.95 255.23, 34.7 253.63, 35.35 252.5 C36.0 251.37, 37.01 249.93, 37.85 248.93 C38.69 247.93, 39.93 246.69, 40.93 245.85 C41.93 245.01, 43.37 244.0, 44.5 243.35 C45.63 242.7, 47.23 241.95, 48.45 241.51 C49.67 241.06, 51.38 240.61, 52.66 240.38 C53.94 240.15, 55.7 240.0, 57.0 240.0 C58.3 240.0, 60.06 240.15, 61.34 240.38 C62.62 240.61, 64.33 241.06, 65.55 241.51 C66.77 241.95, 68.37 242.7, 69.5 243.35 C70.63 244.0, 72.07 245.01, 73.07 245.85 C74.07 246.69, 75.31 247.93, 76.15 248.93 C76.99 249.93, 78.0 251.37, 78.65 252.5 C79.3 253.63, 80.05 255.23, 80.49 256.45 C80.94 257.67, 81.39 259.38, 81.62 260.66 C81.85 261.94, 81.94 264.35, 82.0 265.0 C82.06 265.65, 82.06 264.35, 82.0 265.0" stroke="#000000" stroke-width="2.0" fill="none" />
  <path d="M166.0 265.0 C166.0 266.3, 165.85 268.06, 165.62 269.34 C165.39 270.62, 164.94 272.33, 164.49 273.55 C164.05 274.77, 163.3 276.37, 162.65 277.5 C162.0 278.63, 160.99 280.07, 160.15 281.07 C159.31 282.07, 158.07 283.31, 157.07 284.15 C156.07 284.99, 154.63 286.0, 153.5 286.65 C152.37 287.3, 150.77 288.05, 149.55 288.49 C148.33 288.94, 146.62 289.39, 145.34 289.62 C144.06 289.85, 142.3 290.0, 141.0 290.0 C139.7 290.0, 137.94 289.85, 136.66 289.62 C135.38 289.39, 133.67 288.94, 132.45 288.49 C131.23 288.05, 129.63 287.3, 128.5 286.65 C127.37 286.0, 125.93 284.99, 124.93 284.15 C123.93 283.31, 122.69 282.07, 121.85 281.07 C121.01 280.07, 120.0 278.63, 119.35 277.5 C118.7 276.37, 117.95 274.77, 117.51 273.55 C117.06 272.33, 116.61 270.62, 116.38 269.34 C116.15 268.06, 116.0 266.3, 116.0 265.0 C116.0 263.7, 116.15 261.94, 116.38 260.66 C116.61 259.38, 117.06 257.67, 117.51 256.45 C117.95 255.23, 118.7 253.63, 119.35 252.5 C120.0 251.37, 121.01 249.93, 121.85 248.93 C122.69 247.93, 123.93 246.69, 124.93 245.85 C125.93 245.01, 127.37 244.0, 128.5 243.35 C129.63 242.7, 131.23 241.95, 132.45 241.51 C133.67 241.06, 135.38 240.61, 136.66 240.38 C137.94 240.15, 139.7 240.0, 141.0 240.0 C142.3 240.0, 144.06 240.15, 145.34 240.38 C146.62 240.61, 148.33 241.06, 149.55 241.51 C150.77 241.95, 152.37 242.7, 153.5 243.35 C154.63 244.0, 156.07 245.01, 157.07 245.85 C158.07 246.69, 159.31 247.93, 160.15 248.93 C160.99 249.93, 162.0 251.37, 162.65 252.5 C163.3 253.63, 164.05 255.23, 164.49 256.45 C164.94 257.67, 165.39 259.38, 165.62 260.66 C165.85 261.94, 165.94 264.35, 166.0 265.0 C166.06 265.65, 166.06 264.35, 166.0 265.0" stroke="#000000" stroke-width="2.0" fill="none" />
  <path d="M250.0 265.0 C250.0 266.3, 249.85 268.06, 249.62 269.34 C249.39 270.62, 248.94 272.33, 248.49 273.55 C248.05 274.77, 247.3 276.37, 246.65 277.5 C246.0 278.63, 244.99 280.07, 244.15 281.07 C243.31 282.07, 242.07 283.31, 241.07 284.15 C240.07 284.99, 238.63 286.0, 237.5 286.65 C236.37 287.3, 234.77 288.05, 233.55 288.49 C232.33 288.94, 230.62 289.39, 229.34 289.62 C228.06 289.85, 226.3 290.0, 225.0 290.0 C223.7 290.0, 221.94 289.85, 220.66 289.62 C219.38 289.39, 217.67 288.94, 216.45 288.49 C215.23 288.05, 213.63 287.3, 212.5 286.65 C211.37 286.0, 209.93 284.99, 208.93 284.15 C207.93 283.31, 206.69 282.07, 205.85 281.07 C205.01 280.07, 204.0 278.63, 203.35 277.5 C202.7 276.37, 201.95 274.77, 201.51 273.55 C201.06 272.33, 200.61 270.62, 200.38 269.34 C200.15 268.06, 200.0 266.3, 200.0 265.0 C200.0 263.7, 200.15 261.94, 200.38 260.66 C200.61 259.38, 201.06 257.67, 201.51 256.45 C201.95 255.23, 202.7 253.63, 203.35 252.5 C204.0 251.37, 205.01 249.93, 205.85 248.93 C206.69 247.93, 207.93 246.69, 208.93 245.85 C209.93 245.01, 211.37 244.0, 212.5 243.35 C213.63 242.7, 215.23 241.95, 216.45 241.51 C217.67 241.06, 219.38 240.61, 220.66 240.38 C221.94 240.15, 223.7 240.0, 225.0 240.0 C226.3 240.0, 228.06 240.15, 229.34 240.38 C230.62 240.61, 232.33 241.06, 233.55 241.51 C234.77 241.95, 236.37 242.7, 237.5 243.35 C238.63 244.0, 240.07 245.01, 241.07 245.85 C242.07 246.69, 243.31 247.93, 244.15 248.93 C244.99 249.93, 246.0 251.37, 246.65 252.5 C247.3 253.63, 248.05 255.23, 248.49 256.45 C248.94 257.67, 249.39 259.38, 249.62 260.66 C249.85 261.94, 249.94 264.35, 250.0 265.0 C250.06 265.65, 250.06 264.35, 250.0 265.0" stroke="#000000" stroke-width="2.0" fill="none" />
  <path d="M334.0 265.0 C334.0 266.3, 333.85 268.06, 333.62 269.34 C333.39 270.62, 332.94 272.33, 332.49 273.55 C332.05 274.77, 331.3 276.37, 330.65 277.5 C330.0 278.63, 328.99 280.07, 328.15 281.07 C327.31 282.07, 326.07 283.31, 325.07 284.15 C324.07 284.99, 322.63 286.0, 321.5 286.65 C320.37 287.3, 318.77 288.05, 317.55 288.49 C316.33 288.94, 314.62 289.39, 313.34 289.62 C312.06 289.85, 310.3 290.0, 309.0 290.0 C307.7 290.0, 305.94 289.85, 304.66 289.62 C303.38 289.39, 301.67 288.94, 300.45 288.49 C299.23 288.05, 297.63 287.3, 296.5 286.65 C295.37 286.0, 293.93 284.99, 292.93 284.15 C291.93 283.31, 290.69 282.07, 289.85 281.07 C289.01 280.07, 288.0 278.63, 287.35 277.5 C286.7 276.37, 285.95 274.77, 285.51 273.55 C285.06 272.33, 284.61 270.62, 284.38 269.34 C284.15 268.06, 284.0 266.3, 284.0 265.0 C284.0 263.7, 284.15 261.94, 284.38 260.66 C284.61 259.38, 285.06 257.67, 285.51 256.45 C285.95 255.23, 286.7 253.63, 287.35 252.5 C288.0 251.37, 289.01 249.93, 289.85 248.93 C290.69 247.93, 291.93 246.69, 292.93 245.85 C293.93 245.01, 295.37 244.0, 296.5 243.35 C297.63 242.7, 299.23 241.95, 300.45 241.51 C301.67 241.06, 303.38 240.61, 304.66 240.38 C305.94 240.15, 307.7 240.0, 309.0 240.0 C310.3 240.0, 312.06 240.15, 313.34 240.38 C314.62 240.61, 316.33 241.06, 317.55 241.51 C318.77 241.95, 320.37 242.7, 321.5 243.35 C322.63 244.0, 324.07 245.01, 325.07 245.85 C326.07 246.69, 327.31 247.93, 328.15 248.93 C328.99 249.93, 330.0 251.37, 330.65 252.5 C331.3 253.63, 332.05 255.23, 332.49 256.45 C332.94 257.67, 333.39 259.38, 333.62 260.66 C333.85 261.94, 333.94 264.35, 334.0 265.0 C334.06 265.65, 334.06 264.35, 334.0 265.0" stroke="#000000" stroke-width="2.0" fill="none" />
  <path d="M82.0 369.0 C82.0 370.3, 81.85 372.06, 81.62 373.34 C81.39 374.62, 80.94 376.33, 80.49 377.55 C80.05 378.77, 79.3 380.37, 78.65 381.5 C78.0 382.63, 76.99 384.07, 76.15 385.07 C75.31 386.07, 74.07 387.31, 73.07 388.15 C72.07 388.99, 70.63 390.0, 69.5 390.65 C68.37 391.3, 66.77 392.05, 65.55 392.49 C64.33 392.94, 62.62 393.39, 61.34 393.62 C60.06 393.85, 58.3 394.0, 57.0 394.0 C55.7 394.0, 53.94 393.85, 52.66 393.62 C51.38 393.39, 49.67 392.94, 48.45 392.49 C47.23 392.05, 45.63 391.3, 44.5 390.65 C43.37 390.0, 41.93 388.99, 40.93 388.15 C39.93 387.31, 38.69 386.07, 37.85 385.07 C37.01 384.07, 36.0 382.63, 35.35 381.5 C34.7 380.37, 33.95 378.77, 33.51 377.55 C33.06 376.33, 32.61 374.62, 32.38 373.34 C32.15 372.06, 32.0 370.3, 32.0 369.0 C32.0 367.7, 32.15 365.94, 32.38 364.66 C32.61 363.38, 33.06 361.67, 33.51 360.45 C33.95 359.23, 34.7 357.63, 35.35 356.5 C36.0 355.37, 37.01 353.93, 37.85 352.93 C38.69 351.93, 39.93 350.69, 40.93 349.85 C41.93 349.01, 43.37 348.0, 44.5 347.35 C45.63 346.7, 47.23 345.95, 48.45 345.51 C49.67 345.06, 51.38 344.61, 52.66 344.38 C53.94 344.15, 55.7 344.0, 57.0 344.0 C58.3 344.0, 60.06 344.15, 61.34 344.38 C62.62 344.61, 64.33 345.06, 65.55 345.51 C66.77 345.95, 68.37 346.7, 69.5 347.35 C70.63 348.0, 72.07 349.01, 73.07 349.85 C74.07 350.69, 75.31 351.93, 76.15 352.93 C76.99 353.93, 78.0 355.37, 78.65 356.5 C79.3 357.63, 80.05 359.23, 80.49 360.45 C80.94 361.67, 81.39 363.38, 81.62 364.66 C81.85 365.94, 81.94 368.35, 82.0 369.0 C82.06 369.65, 82.06 368.35, 82.0 369.0" stroke="#000000" stroke-width="2.0" fill="none" />
  <path d="M250.0 369.0 C250.0 370.3, 249.85 372.06, 249.62 373.34 C249.39 374.62, 248.94 376.33, 248.49 377.55 C248.05 378.77, 247.3 380.37, 246.65 381.5 C246.0 382.63, 244.99 384.07, 244.15 385.07 C243.31 386.07, 242.07 387.31, 241.07 388.15 C240.07 388.99, 238.63 390.0, 237.5 390.65 C236.37 391.3, 234.77 392.05, 233.55 392.49 C232.33 392.94, 230.62 393.39, 229.34 393.62 C228.06 393.85, 226.3 394.0, 225.0 394.0 C223.7 394.0, 221.94 393.85, 220.66 393.62 C219.38 393.39, 217.67 392.94, 216.45 392.49 C215.23 392.05, 213.63 391.3, 212.5 390.65 C211.37 390.0, 209.93 388.99, 208.93 388.15 C207.93 387.31, 206.69 386.07, 205.85 385.07 C205.01 384.07, 204.0 382.63, 203.35 381.5 C202.7 380.37, 201.95 378.77, 201.51 377.55 C201.06 376.33, 200.61 374.62, 200.38 373.34 C200.15 372.06, 200.0 370.3, 200.0 369.0 C200.0 367.7, 200.15 365.94, 200.38 364.66 C200.61 363.38, 201.06 361.67, 201.51 360.45 C201.95 359.23, 202.7 357.63, 203.35 356.5 C204.0 355.37, 205.01 353.93, 205.85 352.93 C206.69 351.93, 207.93 350.69, 208.93 349.85 C209.93 349.01, 211.37 348.0, 212.5 347.35 C213.63 346.7, 215.23 345.95, 216.45 345.51 C217.67 345.06, 219.38 344.61, 220.66 344.38 C221.94 344.15, 223.7 344.0, 225.0 344.0 C226.3 344.0, 228.06 344.15, 229.34 344.38 C230.62 344.61, 232.33 345.06, 233.55 345.51 C234.77 345.95, 236.37 346.7, 237.5 347.35 C238.63 348.0, 240.07 349.01, 241.07 349.85 C242.07 350.69, 243.31 351.93, 244.15 352.93 C244.99 353.93, 246.0 355.37, 246.65 356.5 C247.3 357.63, 248.05 359.23, 248.49 360.45 C248.94 361.67, 249.39 363.38, 249.62 364.66 C249.85 365.94, 249.94 368.35, 250.0 369.0 C250.06 369.65, 250.06 368.35, 250.0 369.0" stroke="#000000" stroke-width="2.0" fill="none" />
  <path d="M57.0 290.0 C57.0 300.83, 57.0 311.66, 57.0 344.0" stroke="#2f67b2" stroke-width="2.5" fill="none" />
  <path d="M89.64 184.18 C84.97 195.74, 80.3 207.3, 66.36 241.82" stroke="#2f67b2" stroke-width="2.5" fill="none" />
  <path d="M167.29 76.45 C156.75 89.5, 146.2 102.56, 114.71 141.55" stroke="#2f67b2" stroke-width="2.5" fill="none" />
  <path d="M198.71 76.45 C209.25 89.5, 219.8 102.56, 251.29 141.55" stroke="#2f67b2" stroke-width="2.5" fill="none" />
  <path d="M257.64 184.18 C252.97 195.74, 248.3 207.3, 234.36 241.82" stroke="#2f67b2" stroke-width="2.5" fill="none" />
  <path d="M225.0 290.0 C225.0 300.83, 225.0 311.66, 225.0 344.0" stroke="#2f67b2" stroke-width="2.5" fill="none" />
  <path d="M82.0 369.0 C82.0 370.3, 81.85 372.06, 81.62 373.34 C81.39 374.62, 80.94 376.33, 80.49 377.55 C80.05 378.77, 79.3 380.37, 78.65 381.5 C78.0 382.63, 76.99 384.07, 76.15 385.07 C75.31 386.07, 74.07 387.31, 73.07 388.15 C72.07 388.99, 70.63 390.0, 69.5 390.65 C68.37 391.3, 66.77 392.05, 65.55 392.49 C64.33 392.94, 62.62 393.39, 61.34 393.62 C60.06 393.85, 58.3 394.0, 57.0 394.0 C55.7 394.0, 53.94 393.85, 52.66 393.62 C51.38 393.39, 49.67 392.94, 48.45 392.49 C47.23 392.05, 45.63 391.3, 44.5 390.65 C43.37 390.0, 41.93 388.99, 40.93 388.15 C39.93 387.31, 38.69 386.07, 37.85 385.07 C37.01 384.07, 36.0 382.63, 35.35 381.5 C34.7 380.37, 33.95 378.77, 33.51 377.55 C33.06 376.33, 32.61 374.62, 32.38 373.34 C32.15 372.06, 32.0 370.3, 32.0 369.0 C32.0 367.7, 32.15 365.94, 32.38 364.66 C32.61 363.38, 33.06 361.67, 33.51 360.45 C33.95 359.23, 34.7 357.63, 35.35 356.5 C36.0 355.37, 37.01 353.93, 37.85 352.93 C38.69 351.93, 39.93 350.69, 40.93 349.85 C41.93 349.01, 43.37 348.0, 44.5 347.35 C45.63 346.7, 47.23 345.95, 48.45 345.51 C49.67 345.06, 51.38 344.61, 52.66 344.38 C53.94 344.15, 55.7 344.0, 57.0 344.0 C58.3 344.0, 60.06 344.15, 61.34 344.38 C62.62 344.61, 64.33 345.06, 65.55 345.51 C66.77 345.95, 68.37 346.7, 69.5 347.35 C70.63 348.0, 72.07 349.01, 73.07 349.85 C74.07 350.69, 75.31 351.93, 76.15 352.93 C76.99 353.93, 78.0 355.37, 78.65 356.5 C79.3 357.63, 80.05 359.23, 80.49 360.45 C80.94 361.67, 81.39 363.38, 81.62 364.66 C81.85 365.94, 81.94 368.35, 82.0 369.0 C82.06 369.65, 82.06 368.35, 82.0 369.0" stroke="#2f67b2" stroke-width="2.5" fill="none" />
  <path d="M82.0 265.0 C82.0 266.3, 81.85 268.06, 81.62 269.34 C81.39 270.62, 80.94 272.33, 80.49 273.55 C80.05 274.77, 79.3 276.37, 78.65 277.5 C78.0 278.63, 76.99 280.07, 76.15 281.07 C75.31 282.07, 74.07 283.31, 73.07 284.15 C72.07 284.99, 70.63 286.0, 69.5 286.65 C68.37 287.3, 66.77 288.05, 65.55 288.49 C64.33 288.94, 62.62 289.39, 61.34 289.62 C60.06 289.85, 58.3 290.0, 57.0 290.0 C55.7 290.0, 53.94 289.85, 52.66 289.62 C51.38 289.39, 49.67 288.94, 48.45 288.49 C47.23 288.05, 45.63 287.3, 44.5 286.65 C43.37 286.0, 41.93 284.99, 40.93 284.15 C39.93 283.31, 38.69 282.07, 37.85 281.07 C37.01 280.07, 36.0 278.63, 35.35 277.5 C34.7 276.37, 33.95 274.77, 33.51 273.55 C33.06 272.33, 32.61 270.62, 32.38 269.34 C32.15 268.06, 32.0 266.3, 32.0 265.0 C32.0 263.7, 32.15 261.94, 32.38 260.66 C32.61 259.38, 33.06 257.67, 33.51 256.45 C33.95 255.23, 34.7 253.63, 35.35 252.5 C36.0 251.37, 37.01 249.93, 37.85 248.93 C38.69 247.93, 39.93 246.69, 40.93 245.85 C41.93 245.01, 43.37 244.0, 44.5 243.35 C45.63 242.7, 47.23 241.95, 48.45 241.51 C49.67 241.06, 51.38 240.61, 52.66 240.38 C53.94 240.15, 55.7 240.0, 57.0 240.0 C58.3 240.0, 60.06 240.15, 61.34 240.38 C62.62 240.61, 64.33 241.06, 65.55 241.51 C66.77 241.95, 68.37 242.7, 69.5 243.35 C70.63 244.0, 72.07 245.01, 73.07 245.85 C74.07 246.69, 75.31 247.93, 76.15 248.93 C76.99 249.93, 78.0 251.37, 78.65 252.5 C79.3 253.63, 80.05 255.23, 80.49 256.45 C80.94 257.67, 81.39 259.38, 81.62 260.66 C81.85 261.94, 81.94 264.35, 82.0 265.0 C82.06 265.65, 82.06 264.35, 82.0 265.0" stroke="#2f67b2" stroke-width="2.5" fill="none" />
  <path d="M124.0 161.0 C124.0 162.3, 123.85 164.06, 123.62 165.34 C123.39 166.62, 122.94 168.33, 122.49 169.55 C122.05 170.77, 121.3 172.37, 120.65 173.5 C120.0 174.63, 118.99 176.07, 118.15 177.07 C117.31 178.07, 116.07 179.31, 115.07 180.15 C114.07 180.99, 112.63 182.0, 111.5 182.65 C110.37 183.3, 108.77 184.05, 107.55 184.49 C106.33 184.94, 104.62 185.39, 103.34 185.62 C102.06 185.85, 100.3 186.0, 99.0 186.0 C97.7 186.0, 95.94 185.85, 94.66 185.62 C93.38 185.39, 91.67 184.94, 90.45 184.49 C89.23 184.05, 87.63 183.3, 86.5 182.65 C85.37 182.0, 83.93 180.99, 82.93 180.15 C81.93 179.31, 80.69 178.07, 79.85 177.07 C79.01 176.07, 78.0 174.63, 77.35 173.5 C76.7 172.37, 75.95 170.77, 75.51 169.55 C75.06 168.33, 74.61 166.62, 74.38 165.34 C74.15 164.06, 74.0 162.3, 74.0 161.0 C74.0 159.7, 74.15 157.94, 74.38 156.66 C74.61 155.38, 75.06 153.67, 75.51 152.45 C75.95 151.23, 76.7 149.63, 77.35 148.5 C78.0 147.37, 79.01 145.93, 79.85 144.93 C80.69 143.93, 81.93 142.69, 82.93 141.85 C83.93 141.01, 85.37 140.0, 86.5 139.35 C87.63 138.7, 89.23 137.95, 90.45 137.51 C91.67 137.06, 93.38 136.61, 94.66 136.38 C95.94 136.15, 97.7 136.0, 99.0 136.0 C100.3 136.0, 102.06 136.15, 103.34 136.38 C104.62 136.61, 106.33 137.06, 107.55 137.51 C108.77 137.95, 110.37 138.7, 111.5 139.35 C112.63 140.0, 114.07 141.01, 115.07 141.85 C116.07 142.69, 117.31 143.93, 118.15 144.93 C118.99 145.93, 120.0 147.37, 120.65 148.5 C121.3 149.63, 122.05 151.23, 122.49 152.45 C122.94 153.67, 123.39 155.38, 123.62 156.66 C123.85 157.94, 123.94 160.35, 124.0 161.0 C124.06 161.65, 124.06 160.35, 124.0 161.0" stroke="#2f67b2" stroke-width="2.5" fill="none" />
  <path d="M208.0 57.0 C208.0 58.3, 207.85 60.06, 207.62 61.34 C207.39 62.62, 206.94 64.33, 206.49 65.55 C206.05 66.77, 205.3 68.37, 204.65 69.5 C204.0 70.63, 202.99 72.07, 202.15 73.07 C201.31 74.07, 200.07 75.31, 199.07 76.15 C198.07 76.99, 196.63 78.0, 195.5 78.65 C194.37 79.3, 192.77 80.05, 191.55 80.49 C190.33 80.94, 188.62 81.39, 187.34 81.62 C186.06 81.85, 184.3 82.0, 183.0 82.0 C181.7 82.0, 179.94 81.85, 178.66 81.62 C177.38 81.39, 175.67 80.94, 174.45 80.49 C173.23 80.05, 171.63 79.3, 170.5 78.65 C169.37 78.0, 167.93 76.99, 166.93 76.15 C165.93 75.31, 164.69 74.07, 163.85 73.07 C163.01 72.07, 162.0 70.63, 161.35 69.5 C160.7 68.37, 159.95 66.77, 159.51 65.55 C159.06 64.33, 158.61 62.62, 158.38 61.34 C158.15 60.06, 158.0 58.3, 158.0 57.0 C158.0 55.7, 158.15 53.94, 158.38 52.66 C158.61 51.38, 159.06 49.67, 159.51 48.45 C159.95 47.23, 160.7 45.63, 161.35 44.5 C162.0 43.37, 163.01 41.93, 163.85 40.93 C164.69 39.93, 165.93 38.69, 166.93 37.85 C167.93 37.01, 169.37 36.0, 170.5 35.35 C171.63 34.7, 173.23 33.95, 174.45 33.51 C175.67 33.06, 177.38 32.61, 178.66 32.38 C179.94 32.15, 181.7 32.0, 183.0 32.0 C184.3 32.0, 186.06 32.15, 187.34 32.38 C188.62 32.61, 190.33 33.06, 191.55 33.51 C192.77 33.95, 194.37 34.7, 195.5 35.35 C196.63 36.0, 198.07 37.01, 199.07 37.85 C200.07 38.69, 201.31 39.93, 202.15 40.93 C202.99 41.93, 204.0 43.37, 204.65 44.5 C205.3 45.63, 206.05 47.23, 206.49 48.45 C206.94 49.67, 207.39 51.38, 207.62 52.66 C207.85 53.94, 207.94 56.35, 208.0 57.0 C208.06 57.65, 208.06 56.35, 208.0 57.0" stroke="#2f67b2" stroke-width="2.5" fill="none" />
  <path d="M292.0 161.0 C292.0 162.3, 291.85 164.06, 291.62 165.34 C291.39 166.62, 290.94 168.33, 290.49 169.55 C290.05 170.77, 289.3 172.37, 288.65 173.5 C288.0 174.63, 286.99 176.07, 286.15 177.07 C285.31 178.07, 284.07 179.31, 283.07 180.15 C282.07 180.99, 280.63 182.0, 279.5 182.65 C278.37 183.3, 276.77 184.05, 275.55 184.49 C274.33 184.94, 272.62 185.39, 271.34 185.62 C270.06 185.85, 268.3 186.0, 267.0 186.0 C265.7 186.0, 263.94 185.85, 262.66 185.62 C261.38 185.39, 259.67 184.94, 258.45 184.49 C257.23 184.05, 255.63 183.3, 254.5 182.65 C253.37 182.0, 251.93 180.99, 250.93 180.15 C249.93 179.31, 248.69 178.07, 247.85 177.07 C247.01 176.07, 246.0 174.63, 245.35 173.5 C244.7 172.37, 243.95 170.77, 243.51 169.55 C243.06 168.33, 242.61 166.62, 242.38 165.34 C242.15 164.06, 242.0 162.3, 242.0 161.0 C242.0 159.7, 242.15 157.94, 242.38 156.66 C242.61 155.38, 243.06 153.67, 243.51 152.45 C243.95 151.23, 244.7 149.63, 245.35 148.5 C246.0 147.37, 247.01 145.93, 247.85 144.93 C248.69 143.93, 249.93 142.69, 250.93 141.85 C251.93 141.01, 253.37 140.0, 254.5 139.35 C255.63 138.7, 257.23 137.95, 258.45 137.51 C259.67 137.06, 261.38 136.61, 262.66 136.38 C263.94 136.15, 265.7 136.0, 267.0 136.0 C268.3 136.0, 270.06 136.15, 271.34 136.38 C272.62 136.61, 274.33 137.06, 275.55 137.51 C276.77 137.95, 278.37 138.7, 279.5 139.35 C280.63 140.0, 282.07 141.01, 283.07 141.85 C284.07 142.69, 285.31 143.93, 286.15 144.93 C286.99 145.93, 288.0 147.37, 288.65 148.5 C289.3 149.63, 290.05 151.23, 290.49 152.45 C290.94 153.67, 291.39 155.38, 291.62 156.66 C291.85 157.94, 291.94 160.35, 292.0 161.0 C292.06 161.65, 292.06 160.35, 292.0 161.0" stroke="#2f67b2" stroke-width="2.5" fill="none" />
  <path d="M250.0 265.0 C250.0 266.3, 249.85 268.06, 249.62 269.34 C249.39 270.62, 248.94 272.33, 248.49 273.55 C248.05 274.77, 247.3 276.37, 246.65 277.5 C246.0 278.63, 244.99 280.07, 244.15 281.07 C243.31 282.07, 242.07 283.31, 241.07 284.15 C240.07 284.99, 238.63 286.0, 237.5 286.65 C236.37 287.3, 234.77 288.05, 233.55 288.49 C232.33 288.94, 230.62 289.39, 229.34 289.62 C228.06 289.85, 226.3 290.0, 225.0 290.0 C223.7 290.0, 221.94 289.85, 220.66 289.62 C219.38 289.39, 217.67 288.94, 216.45 288.49 C215.23 288.05, 213.63 287.3, 212.5 286.65 C211.37 286.0, 209.93 284.99, 208.93 284.15 C207.93 283.31, 206.69 282.07, 205.85 281.07 C205.01 280.07, 204.0 278.63, 203.35 277.5 C202.7 276.37, 201.95 274.77, 201.51 273.55 C201.06 272.33, 200.61 270.62, 200.38 269.34 C200.15 268.06, 200.0 266.3, 200.0 265.0 C200.0 263.7, 200.15 261.94, 200.38 260.66 C200.61 259.38, 201.06 257.67, 201.51 256.45 C201.95 255.23, 202.7 253.63, 203.35 252.5 C204.0 251.37, 205.01 249.93, 205.85 248.93 C206.69 247.93, 207.93 246.69, 208.93 245.85 C209.93 245.01, 211.37 244.0, 212.5 243.35 C213.63 242.7, 215.23 241.95, 216.45 241.51 C217.67 241.06, 219.38 240.61, 220.66 240.38 C221.94 240.15, 223.7 240.0, 225.0 240.0 C226.3 240.0, 228.06 240.15, 229.34 240.38 C230.62 240.61, 232.33 241.06, 233.55 241.51 C234.77 241.95, 236.37 242.7, 237.5 243.35 C238.63 244.0, 240.07 245.01, 241.07 245.85 C242.07 246.69, 243.31 247.93, 244.15 248.93 C244.99 249.93, 246.0 251.37, 246.65 252.5 C247.3 253.63, 248.05 255.23, 248.49 256.45 C248.94 257.67, 249.39 259.38, 249.62 260.66 C249.85 261.94, 249.94 264.35, 250.0 265.0 C250.06 265.65, 250.06 264.35, 250.0 265.0" stroke="#2f67b2" stroke-width="2.5" fill="none" />
  <path d="M250.0 369.0 C250.0 370.3, 249.85 372.06, 249.62 373.34 C249.39 374.62, 248.94 376.33, 248.49 377.55 C248.05 378.77, 247.3 380.37, 246.65 381.5 C246.0 382.63, 244.99 384.07, 244.15 385.07 C243.31 386.07, 242.07 387.31, 241.07 388.15 C240.07 388.99, 238.63 390.0, 237.5 390.65 C236.37 391.3, 234.77 392.05, 233.55 392.49 C232.33 392.94, 230.62 393.39, 229.34 393.62 C228.06 393.85, 226.3 394.0, 225.0 394.0 C223.7 394.0, 221.94 393.85, 220.66 393.62 C219.38 393.39, 217.67 392.94, 216.45 392.49 C215.23 392.05, 213.63 391.3, 212.5 390.65 C211.37 390.0, 209.93 388.99, 208.93 388.15 C207.93 387.31, 206.69 386.07, 205.85 385.07 C205.01 384.07, 204.0 382.63, 203.35 381.5 C202.7 380.37, 201.95 378.77, 201.51 377.55 C201.06 376.33, 200.61 374.62, 200.38 373.34 C200.15 372.06, 200.0 370.3, 200.0 369.0 C200.0 367.7, 200.15 365.94, 200.38 364.66 C200.61 363.38, 201.06 361.67, 201.51 360.45 C201.95 359.23, 202.7 357.63, 203.35 356.5 C204.0 355.37, 205.01 353.93, 205.85 352.93 C206.69 351.93, 207.93 350.69, 208.93 349.85 C209.93 349.01, 211.37 348.0, 212.5 347.35 C213.63 346.7, 215.23 345.95, 216.45 345.51 C217.67 345.06, 219.38 344.61, 220.66 344.38 C221.94 344.15, 223.7 344.0, 225.0 344.0 C226.3 344.0, 228.06 344.15, 229.34 344.38 C230.62 344.61, 232.33 345.06, 233.55 345.51 C234.77 345.95, 236.37 346.7, 237.5 347.35 C238.63 348.0, 240.07 349.01, 241.07 349.85 C242.07 350.69, 243.31 351.93, 244.15 352.93 C244.99 353.93, 246.0 355.37, 246.65 356.5 C247.3 357.63, 248.05 359.23, 248.49 360.45 C248.94 361.67, 249.39 363.38, 249.62 364.66 C249.85 365.94, 249.94 368.35, 250.0 369.0 C250.06 369.65, 250.06 368.35, 250.0 369.0" stroke="#2f67b2" stroke-width="2.5" fill="none" />
  <text x="183" y="57" fill="#000000" font-size="20" font-family="Comic Neue, AR PL KaitiM GB, Noto Sans CJK SC, Microsoft YaHei, sans-serif" font-weight="normal" text-anchor="middle" dominant-baseline="central" style="pointer-events: none; user-select: none;">1</text>
  <text x="99" y="161" fill="#000000" font-size="20" font-family="Comic Neue, AR PL KaitiM GB, Noto Sans CJK SC, Microsoft YaHei, sans-serif" font-weight="normal" text-anchor="middle" dominant-baseline="central" style="pointer-events: none; user-select: none;">2</text>
  <text x="267" y="161" fill="#000000" font-size="20" font-family="Comic Neue, AR PL KaitiM GB, Noto Sans CJK SC, Microsoft YaHei, sans-serif" font-weight="normal" text-anchor="middle" dominant-baseline="central" style="pointer-events: none; user-select: none;">3</text>
  <text x="57" y="265" fill="#000000" font-size="20" font-family="Comic Neue, AR PL KaitiM GB, Noto Sans CJK SC, Microsoft YaHei, sans-serif" font-weight="normal" text-anchor="middle" dominant-baseline="central" style="pointer-events: none; user-select: none;">4</text>
  <text x="141" y="265" fill="#000000" font-size="20" font-family="Comic Neue, AR PL KaitiM GB, Noto Sans CJK SC, Microsoft YaHei, sans-serif" font-weight="normal" text-anchor="middle" dominant-baseline="central" style="pointer-events: none; user-select: none;">5</text>
  <text x="225" y="265" fill="#000000" font-size="20" font-family="Comic Neue, AR PL KaitiM GB, Noto Sans CJK SC, Microsoft YaHei, sans-serif" font-weight="normal" text-anchor="middle" dominant-baseline="central" style="pointer-events: none; user-select: none;">6</text>
  <text x="309" y="265" fill="#000000" font-size="20" font-family="Comic Neue, AR PL KaitiM GB, Noto Sans CJK SC, Microsoft YaHei, sans-serif" font-weight="normal" text-anchor="middle" dominant-baseline="central" style="pointer-events: none; user-select: none;">7</text>
  <text x="57" y="369" fill="#000000" font-size="20" font-family="Comic Neue, AR PL KaitiM GB, Noto Sans CJK SC, Microsoft YaHei, sans-serif" font-weight="normal" text-anchor="middle" dominant-baseline="central" style="pointer-events: none; user-select: none;">8</text>
  <text x="225" y="369" fill="#000000" font-size="20" font-family="Comic Neue, AR PL KaitiM GB, Noto Sans CJK SC, Microsoft YaHei, sans-serif" font-weight="normal" text-anchor="middle" dominant-baseline="central" style="pointer-events: none; user-select: none;">9</text>
</svg>