<svg width="732" height="717" viewBox="0 0 732 717" xmlns="http://www.w3.org/2000/svg">
  <path d="M0 0 L732 0 L732 717 L0 717" stroke="none" stroke-width="0.0" fill="#ffffff" />
  <path d="M619.52 423.13 C614.33 428.38, 609.14 433.62, 593.64 449.29" stroke="#000000" stroke-width="2.0" fill="none" />
  <path d="M564.8 444.74 C557.51 430.27, 550.21 415.8, 528.42 372.55" stroke="#000000" stroke-width="2.0" fill="none" />
  <path d="M539.88 360.67 C554.82 367.53, 569.75 374.4, 614.39 394.92" stroke="#000000" stroke-width="2.0" fill="none" />
  <path d="M499.44 332.59 C480.9 314.13, 462.35 295.67, 406.91 240.51" stroke="#000000" stroke-width="2.0" fill="none" />
  <path d="M377.9 245.18 C366.96 266.79, 356.01 288.4, 323.31 352.97" stroke="#000000" stroke-width="2.0" fill="none" />
  <path d="M300.53 397.48 C291.05 415.81, 281.57 434.14, 253.24 488.9" stroke="#000000" stroke-width="2.0" fill="none" />
  <path d="M230.36 533.36 C223.55 546.65, 216.74 559.95, 196.39 599.67" stroke="#000000" stroke-width="2.0" fill="none" />
  <path d="M364.49 219.03 C339.27 215.1, 314.05 211.17, 238.69 199.42" stroke="#000000" stroke-width="2.0" fill="none" />
  <path d="M191.35 206.18 C176.57 213.1, 161.79 220.02, 117.64 240.7" stroke="#000000" stroke-width="2.0" fill="none" />
  <path d="M197.8 176.52 C187.15 164.0, 176.5 151.47, 144.69 114.05" stroke="#000000" stroke-width="2.0" fill="none" />
  <path d="M385.22 198.2 C383.37 196.05, 382.04 191.84, 381.4 188.95 C380.76 186.07, 380.58 181.89, 380.97 178.96 C381.35 176.03, 382.61 172.04, 383.98 169.42 C385.35 166.8, 387.9 163.48, 390.08 161.49 C392.26 159.49, 395.78 157.25, 398.52 156.12 C401.25 154.99, 405.33 154.08, 408.28 153.96 C411.24 153.83, 415.38 154.38, 418.2 155.27 C421.02 156.16, 424.73 158.09, 427.07 159.89 C429.42 161.69, 432.24 164.78, 433.83 167.27 C435.41 169.77, 437.01 173.63, 437.65 176.52 C438.29 179.4, 438.47 183.58, 438.08 186.51 C437.69 189.44, 436.43 193.43, 435.07 196.05 C433.7 198.67, 431.15 201.99, 428.97 203.98 C426.79 205.98, 423.16 208.23, 420.53 209.35 C417.9 210.48, 412.8 211.16, 411.44 211.48" stroke="#000000" stroke-width="2.0" fill="none" />
  <path d="M662.1 405.36 C662.1 406.66, 661.95 408.42, 661.72 409.7 C661.5 410.98, 661.04 412.69, 660.6 413.91 C660.15 415.13, 659.41 416.73, 658.76 417.86 C658.1 418.99, 657.09 420.43, 656.26 421.43 C655.42 422.43, 654.17 423.67, 653.17 424.51 C652.18 425.35, 650.73 426.36, 649.6 427.01 C648.48 427.66, 646.88 428.41, 645.66 428.85 C644.43 429.3, 642.73 429.75, 641.45 429.98 C640.16 430.21, 638.41 430.36, 637.1 430.36 C635.8 430.36, 634.05 430.21, 632.76 429.98 C631.48 429.75, 629.78 429.3, 628.55 428.85 C627.33 428.41, 625.73 427.66, 624.6 427.01 C623.48 426.36, 622.03 425.35, 621.04 424.51 C620.04 423.67, 618.79 422.43, 617.95 421.43 C617.12 420.43, 616.11 418.99, 615.45 417.86 C614.8 416.73, 614.06 415.13, 613.61 413.91 C613.17 412.69, 612.71 410.98, 612.48 409.7 C612.26 408.42, 612.1 406.66, 612.1 405.36 C612.1 404.06, 612.26 402.3, 612.48 401.02 C612.71 399.74, 613.17 398.03, 613.61 396.81 C614.06 395.59, 614.8 393.99, 615.45 392.86 C616.11 391.73, 617.12 390.29, 617.95 389.29 C618.79 388.29, 620.04 387.05, 621.04 386.21 C622.03 385.37, 623.48 384.36, 624.6 383.71 C625.73 383.06, 627.33 382.31, 628.55 381.87 C629.78 381.42, 631.48 380.97, 632.76 380.74 C634.05 380.51, 635.8 380.36, 637.1 380.36 C638.41 380.36, 640.16 380.51, 641.45 380.74 C642.73 380.97, 644.43 381.42, 645.66 381.87 C646.88 382.31, 648.48 383.06, 649.6 383.71 C650.73 384.36, 652.18 385.37, 653.17 386.21 C654.17 387.05, 655.42 388.29, 656.26 389.29 C657.09 390.29, 658.1 391.73, 658.76 392.86 C659.41 393.99, 660.15 395.59, 660.6 396.81 C661.04 398.03, 661.5 399.74, 661.72 401.02 C661.95 402.3, 662.05 404.71, 662.1 405.36 C662.16 406.01, 662.16 404.71, 662.1 405.36" stroke="#000000" stroke-width="2.0" fill="none" />
  <path d="M601.05 467.07 C601.05 468.37, 600.9 470.12, 600.67 471.41 C600.45 472.69, 599.99 474.39, 599.55 475.62 C599.1 476.84, 598.36 478.44, 597.7 479.57 C597.05 480.69, 596.04 482.14, 595.2 483.14 C594.37 484.13, 593.12 485.38, 592.12 486.22 C591.13 487.05, 589.68 488.07, 588.55 488.72 C587.43 489.37, 585.83 490.11, 584.6 490.56 C583.38 491.0, 581.68 491.46, 580.39 491.69 C579.11 491.91, 577.36 492.07, 576.05 492.07 C574.75 492.07, 573.0 491.91, 571.71 491.69 C570.43 491.46, 568.73 491.0, 567.5 490.56 C566.28 490.11, 564.68 489.37, 563.55 488.72 C562.43 488.07, 560.98 487.05, 559.98 486.22 C558.99 485.38, 557.74 484.13, 556.9 483.14 C556.07 482.14, 555.05 480.69, 554.4 479.57 C553.75 478.44, 553.01 476.84, 552.56 475.62 C552.12 474.39, 551.66 472.69, 551.43 471.41 C551.21 470.12, 551.05 468.37, 551.05 467.07 C551.05 465.76, 551.21 464.01, 551.43 462.72 C551.66 461.44, 552.12 459.74, 552.56 458.52 C553.01 457.29, 553.75 455.69, 554.4 454.57 C555.05 453.44, 556.07 451.99, 556.9 451.0 C557.74 450.0, 558.99 448.75, 559.98 447.92 C560.98 447.08, 562.43 446.07, 563.55 445.42 C564.68 444.76, 566.28 444.02, 567.5 443.57 C568.73 443.13, 570.43 442.67, 571.71 442.45 C573.0 442.22, 574.75 442.07, 576.05 442.07 C577.36 442.07, 579.11 442.22, 580.39 442.45 C581.68 442.67, 583.38 443.13, 584.6 443.57 C585.83 444.02, 587.43 444.76, 588.55 445.42 C589.68 446.07, 591.13 447.08, 592.12 447.92 C593.12 448.75, 594.37 450.0, 595.2 451.0 C596.04 451.99, 597.05 453.44, 597.7 454.57 C598.36 455.69, 599.1 457.29, 599.55 458.52 C599.99 459.74, 600.45 461.44, 600.67 462.72 C600.9 464.01, 601.0 466.41, 601.05 467.07 C601.11 467.72, 601.11 466.41, 601.05 467.07" stroke="#000000" stroke-width="2.0" fill="none" />
  <path d="M542.17 350.22 C542.17 351.53, 542.01 353.28, 541.79 354.56 C541.56 355.85, 541.1 357.55, 540.66 358.77 C540.21 360.0, 539.47 361.6, 538.82 362.72 C538.17 363.85, 537.15 365.3, 536.32 366.29 C535.48 367.29, 534.23 368.54, 533.24 369.37 C532.24 370.21, 530.79 371.22, 529.67 371.87 C528.54 372.53, 526.94 373.27, 525.72 373.72 C524.49 374.16, 522.79 374.62, 521.51 374.84 C520.22 375.07, 518.47 375.22, 517.17 375.22 C515.86 375.22, 514.11 375.07, 512.82 374.84 C511.54 374.62, 509.84 374.16, 508.62 373.72 C507.39 373.27, 505.79 372.53, 504.67 371.87 C503.54 371.22, 502.09 370.21, 501.1 369.37 C500.1 368.54, 498.85 367.29, 498.01 366.29 C497.18 365.3, 496.17 363.85, 495.52 362.72 C494.86 361.6, 494.12 360.0, 493.67 358.77 C493.23 357.55, 492.77 355.85, 492.55 354.56 C492.32 353.28, 492.17 351.53, 492.17 350.22 C492.17 348.92, 492.32 347.17, 492.55 345.88 C492.77 344.6, 493.23 342.9, 493.67 341.67 C494.12 340.45, 494.86 338.85, 495.52 337.72 C496.17 336.6, 497.18 335.15, 498.01 334.15 C498.85 333.16, 500.1 331.91, 501.1 331.07 C502.09 330.24, 503.54 329.22, 504.67 328.57 C505.79 327.92, 507.39 327.18, 508.62 326.73 C509.84 326.29, 511.54 325.83, 512.82 325.6 C514.11 325.38, 515.86 325.22, 517.17 325.22 C518.47 325.22, 520.22 325.38, 521.51 325.6 C522.79 325.83, 524.49 326.29, 525.72 326.73 C526.94 327.18, 528.54 327.92, 529.67 328.57 C530.79 329.22, 532.24 330.24, 533.24 331.07 C534.23 331.91, 535.48 333.16, 536.32 334.15 C537.15 335.15, 538.17 336.6, 538.82 337.72 C539.47 338.85, 540.21 340.45, 540.66 341.67 C541.1 342.9, 541.56 344.6, 541.79 345.88 C542.01 347.17, 542.11 349.57, 542.17 350.22 C542.22 350.87, 542.22 349.57, 542.17 350.22" stroke="#000000" stroke-width="2.0" fill="none" />
  <path d="M414.19 222.88 C414.19 224.18, 414.04 225.94, 413.81 227.22 C413.59 228.5, 413.13 230.21, 412.69 231.43 C412.24 232.65, 411.49 234.25, 410.84 235.38 C410.19 236.51, 409.18 237.95, 408.34 238.95 C407.51 239.95, 406.26 241.19, 405.26 242.03 C404.26 242.87, 402.82 243.88, 401.69 244.53 C400.57 245.18, 398.97 245.93, 397.74 246.37 C396.52 246.82, 394.82 247.27, 393.53 247.5 C392.25 247.73, 390.5 247.88, 389.19 247.88 C387.89 247.88, 386.13 247.73, 384.85 247.5 C383.57 247.27, 381.87 246.82, 380.64 246.37 C379.42 245.93, 377.82 245.18, 376.69 244.53 C375.57 243.88, 374.12 242.87, 373.12 242.03 C372.13 241.19, 370.88 239.95, 370.04 238.95 C369.2 237.95, 368.19 236.51, 367.54 235.38 C366.89 234.25, 366.15 232.65, 365.7 231.43 C365.26 230.21, 364.8 228.5, 364.57 227.22 C364.35 225.94, 364.19 224.18, 364.19 222.88 C364.19 221.58, 364.35 219.82, 364.57 218.54 C364.8 217.26, 365.26 215.55, 365.7 214.33 C366.15 213.11, 366.89 211.51, 367.54 210.38 C368.19 209.25, 369.2 207.81, 370.04 206.81 C370.88 205.81, 372.13 204.57, 373.12 203.73 C374.12 202.89, 375.57 201.88, 376.69 201.23 C377.82 200.58, 379.42 199.83, 380.64 199.39 C381.87 198.94, 383.57 198.49, 384.85 198.26 C386.13 198.03, 387.89 197.88, 389.19 197.88 C390.5 197.88, 392.25 198.03, 393.53 198.26 C394.82 198.49, 396.52 198.94, 397.74 199.39 C398.97 199.83, 400.57 200.58, 401.69 201.23 C402.82 201.88, 404.26 202.89, 405.26 203.73 C406.26 204.57, 407.51 205.81, 408.34 206.81 C409.18 207.81, 410.19 209.25, 410.84 210.38 C411.49 211.51, 412.24 213.11, 412.69 214.33 C413.13 215.55, 413.59 217.26, 413.81 218.54 C414.04 219.82, 414.14 222.23, 414.19 222.88 C414.25 223.53, 414.25 222.23, 414.19 222.88" stroke="#000000" stroke-width="2.0" fill="none" />
  <path d="M337.02 375.28 C337.02 376.58, 336.86 378.33, 336.64 379.62 C336.41 380.9, 335.95 382.6, 335.51 383.83 C335.06 385.05, 334.32 386.65, 333.67 387.78 C333.02 388.9, 332.0 390.35, 331.17 391.35 C330.33 392.34, 329.08 393.59, 328.09 394.43 C327.09 395.26, 325.64 396.28, 324.52 396.93 C323.39 397.58, 321.79 398.32, 320.57 398.77 C319.34 399.21, 317.64 399.67, 316.36 399.9 C315.08 400.12, 313.32 400.28, 312.02 400.28 C310.71 400.28, 308.96 400.12, 307.68 399.9 C306.39 399.67, 304.69 399.21, 303.47 398.77 C302.24 398.32, 300.64 397.58, 299.52 396.93 C298.39 396.28, 296.94 395.26, 295.95 394.43 C294.95 393.59, 293.7 392.34, 292.87 391.35 C292.03 390.35, 291.02 388.9, 290.37 387.78 C289.71 386.65, 288.97 385.05, 288.52 383.83 C288.08 382.6, 287.62 380.9, 287.4 379.62 C287.17 378.33, 287.02 376.58, 287.02 375.28 C287.02 373.97, 287.17 372.22, 287.4 370.93 C287.62 369.65, 288.08 367.95, 288.52 366.73 C288.97 365.5, 289.71 363.9, 290.37 362.78 C291.02 361.65, 292.03 360.2, 292.87 359.21 C293.7 358.21, 294.95 356.96, 295.95 356.12 C296.94 355.29, 298.39 354.28, 299.52 353.62 C300.64 352.97, 302.24 352.23, 303.47 351.78 C304.69 351.34, 306.39 350.88, 307.68 350.66 C308.96 350.43, 310.71 350.28, 312.02 350.28 C313.32 350.28, 315.08 350.43, 316.36 350.66 C317.64 350.88, 319.34 351.34, 320.57 351.78 C321.79 352.23, 323.39 352.97, 324.52 353.62 C325.64 354.28, 327.09 355.29, 328.09 356.12 C329.08 356.96, 330.33 358.21, 331.17 359.21 C332.0 360.2, 333.02 361.65, 333.67 362.78 C334.32 363.9, 335.06 365.5, 335.51 366.73 C335.95 367.95, 336.41 369.65, 336.64 370.93 C336.86 372.22, 336.96 374.62, 337.02 375.28 C337.07 375.93, 337.07 374.62, 337.02 375.28" stroke="#000000" stroke-width="2.0" fill="none" />
  <path d="M266.76 511.11 C266.76 512.41, 266.61 514.17, 266.38 515.45 C266.15 516.73, 265.7 518.43, 265.25 519.66 C264.81 520.88, 264.06 522.48, 263.41 523.61 C262.76 524.73, 261.75 526.18, 260.91 527.18 C260.07 528.17, 258.83 529.42, 257.83 530.26 C256.83 531.09, 255.39 532.11, 254.26 532.76 C253.13 533.41, 251.53 534.15, 250.31 534.6 C249.09 535.04, 247.38 535.5, 246.1 535.73 C244.82 535.95, 243.06 536.11, 241.76 536.11 C240.46 536.11, 238.7 535.95, 237.42 535.73 C236.14 535.5, 234.43 535.04, 233.21 534.6 C231.98 534.15, 230.39 533.41, 229.26 532.76 C228.13 532.11, 226.69 531.09, 225.69 530.26 C224.69 529.42, 223.44 528.17, 222.61 527.18 C221.77 526.18, 220.76 524.73, 220.11 523.61 C219.46 522.48, 218.71 520.88, 218.27 519.66 C217.82 518.43, 217.36 516.73, 217.14 515.45 C216.91 514.17, 216.76 512.41, 216.76 511.11 C216.76 509.8, 216.91 508.05, 217.14 506.77 C217.36 505.48, 217.82 503.78, 218.27 502.56 C218.71 501.33, 219.46 499.73, 220.11 498.61 C220.76 497.48, 221.77 496.03, 222.61 495.04 C223.44 494.04, 224.69 492.79, 225.69 491.96 C226.69 491.12, 228.13 490.11, 229.26 489.46 C230.39 488.8, 231.98 488.06, 233.21 487.61 C234.43 487.17, 236.14 486.71, 237.42 486.49 C238.7 486.26, 240.46 486.11, 241.76 486.11 C243.06 486.11, 244.82 486.26, 246.1 486.49 C247.38 486.71, 249.09 487.17, 250.31 487.61 C251.53 488.06, 253.13 488.8, 254.26 489.46 C255.39 490.11, 256.83 491.12, 257.83 491.96 C258.83 492.79, 260.07 494.04, 260.91 495.04 C261.75 496.03, 262.76 497.48, 263.41 498.61 C264.06 499.73, 264.81 501.33, 265.25 502.56 C265.7 503.78, 266.15 505.48, 266.38 506.77 C266.61 508.05, 266.7 510.46, 266.76 511.11 C266.82 511.76, 266.82 510.46, 266.76 511.11" stroke="#000000" stroke-width="2.0" fill="none" />
  <path d="M209.99 621.92 C209.99 623.22, 209.84 624.98, 209.61 626.26 C209.38 627.54, 208.93 629.25, 208.48 630.47 C208.04 631.69, 207.29 633.29, 206.64 634.42 C205.99 635.55, 204.98 636.99, 204.14 637.99 C203.3 638.99, 202.06 640.23, 201.06 641.07 C200.06 641.91, 198.62 642.92, 197.49 643.57 C196.36 644.22, 194.77 644.97, 193.54 645.41 C192.32 645.86, 190.61 646.31, 189.33 646.54 C188.05 646.77, 186.29 646.92, 184.99 646.92 C183.69 646.92, 181.93 646.77, 180.65 646.54 C179.37 646.31, 177.66 645.86, 176.44 645.41 C175.22 644.97, 173.62 644.22, 172.49 643.57 C171.36 642.92, 169.92 641.91, 168.92 641.07 C167.92 640.23, 166.68 638.99, 165.84 637.99 C165.0 636.99, 163.99 635.55, 163.34 634.42 C162.69 633.29, 161.94 631.69, 161.5 630.47 C161.05 629.25, 160.6 627.54, 160.37 626.26 C160.14 624.98, 159.99 623.22, 159.99 621.92 C159.99 620.62, 160.14 618.86, 160.37 617.58 C160.6 616.3, 161.05 614.59, 161.5 613.37 C161.94 612.15, 162.69 610.55, 163.34 609.42 C163.99 608.29, 165.0 606.85, 165.84 605.85 C166.68 604.85, 167.92 603.61, 168.92 602.77 C169.92 601.93, 171.36 600.92, 172.49 600.27 C173.62 599.62, 175.22 598.87, 176.44 598.43 C177.66 597.98, 179.37 597.53, 180.65 597.3 C181.93 597.07, 183.69 596.92, 184.99 596.92 C186.29 596.92, 188.05 597.07, 189.33 597.3 C190.61 597.53, 192.32 597.98, 193.54 598.43 C194.77 598.87, 196.36 599.62, 197.49 600.27 C198.62 600.92, 200.06 601.93, 201.06 602.77 C202.06 603.61, 203.3 604.85, 204.14 605.85 C204.98 606.85, 205.99 608.29, 206.64 609.42 C207.29 610.55, 208.04 612.15, 208.48 613.37 C208.93 614.59, 209.38 616.3, 209.61 617.58 C209.84 618.86, 209.93 621.27, 209.99 621.92 C210.05 622.57, 210.05 621.27, 209.99 621.92" stroke="#000000" stroke-width="2.0" fill="none" />
  <path d="M238.99 195.57 C238.99 196.88, 238.83 198.63, 238.61 199.91 C238.38 201.2, 237.93 202.9, 237.48 204.12 C237.04 205.35, 236.29 206.95, 235.64 208.07 C234.99 209.2, 233.98 210.65, 233.14 211.64 C232.3 212.64, 231.06 213.89, 230.06 214.72 C229.06 215.56, 227.62 216.57, 226.49 217.22 C225.36 217.88, 223.76 218.62, 222.54 219.07 C221.31 219.51, 219.61 219.97, 218.33 220.19 C217.05 220.42, 215.29 220.57, 213.99 220.57 C212.69 220.57, 210.93 220.42, 209.65 220.19 C208.36 219.97, 206.66 219.51, 205.44 219.07 C204.21 218.62, 202.62 217.88, 201.49 217.22 C200.36 216.57, 198.92 215.56, 197.92 214.72 C196.92 213.89, 195.67 212.64, 194.84 211.64 C194.0 210.65, 192.99 209.2, 192.34 208.07 C191.69 206.95, 190.94 205.35, 190.5 204.12 C190.05 202.9, 189.59 201.2, 189.37 199.91 C189.14 198.63, 188.99 196.88, 188.99 195.57 C188.99 194.27, 189.14 192.52, 189.37 191.23 C189.59 189.95, 190.05 188.25, 190.5 187.02 C190.94 185.8, 191.69 184.2, 192.34 183.07 C192.99 181.95, 194.0 180.5, 194.84 179.5 C195.67 178.51, 196.92 177.26, 197.92 176.42 C198.92 175.59, 200.36 174.57, 201.49 173.92 C202.62 173.27, 204.21 172.53, 205.44 172.08 C206.66 171.64, 208.36 171.18, 209.65 170.95 C210.93 170.73, 212.69 170.57, 213.99 170.57 C215.29 170.57, 217.05 170.73, 218.33 170.95 C219.61 171.18, 221.31 171.64, 222.54 172.08 C223.76 172.53, 225.36 173.27, 226.49 173.92 C227.62 174.57, 229.06 175.59, 230.06 176.42 C231.06 177.26, 232.3 178.51, 233.14 179.5 C233.98 180.5, 234.99 181.95, 235.64 183.07 C236.29 184.2, 237.04 185.8, 237.48 187.02 C237.93 188.25, 238.38 189.95, 238.61 191.23 C238.83 192.52, 238.93 194.92, 238.99 195.57 C239.05 196.22, 239.05 194.92, 238.99 195.57" stroke="#000000" stroke-width="2.0" fill="none" />
  <path d="M120.0 251.31 C120.0 252.61, 119.85 254.37, 119.62 255.65 C119.39 256.93, 118.94 258.63, 118.49 259.86 C118.05 261.08, 117.3 262.68, 116.65 263.81 C116.0 264.93, 114.99 266.38, 114.15 267.38 C113.31 268.37, 112.07 269.62, 111.07 270.46 C110.07 271.3, 108.63 272.31, 107.5 272.96 C106.37 273.61, 104.77 274.35, 103.55 274.8 C102.33 275.24, 100.62 275.7, 99.34 275.93 C98.06 276.15, 96.3 276.31, 95.0 276.31 C93.7 276.31, 91.94 276.15, 90.66 275.93 C89.38 275.7, 87.67 275.24, 86.45 274.8 C85.23 274.35, 83.63 273.61, 82.5 272.96 C81.37 272.31, 79.93 271.3, 78.93 270.46 C77.93 269.62, 76.69 268.37, 75.85 267.38 C75.01 266.38, 74.0 264.93, 73.35 263.81 C72.7 262.68, 71.95 261.08, 71.51 259.86 C71.06 258.63, 70.61 256.93, 70.38 255.65 C70.15 254.37, 70.0 252.61, 70.0 251.31 C70.0 250.0, 70.15 248.25, 70.38 246.97 C70.61 245.68, 71.06 243.98, 71.51 242.76 C71.95 241.53, 72.7 239.93, 73.35 238.81 C74.0 237.68, 75.01 236.23, 75.85 235.24 C76.69 234.24, 77.93 232.99, 78.93 232.16 C79.93 231.32, 81.37 230.31, 82.5 229.66 C83.63 229.01, 85.23 228.26, 86.45 227.81 C87.67 227.37, 89.38 226.91, 90.66 226.69 C91.94 226.46, 93.7 226.31, 95.0 226.31 C96.3 226.31, 98.06 226.46, 99.34 226.69 C100.62 226.91, 102.33 227.37, 103.55 227.81 C104.77 228.26, 106.37 229.01, 107.5 229.66 C108.63 230.31, 110.07 231.32, 111.07 232.16 C112.07 232.99, 113.31 234.24, 114.15 235.24 C114.99 236.23, 116.0 237.68, 116.65 238.81 C117.3 239.93, 118.05 241.53, 118.49 242.76 C118.94 243.98, 119.39 245.68, 119.62 246.97 C119.85 248.25, 119.94 250.66, 120.0 251.31 C120.06 251.96, 120.06 250.66, 120.0 251.31" stroke="#000000" stroke-width="2.0" fill="none" />
  <path d="M153.5 95.0 C153.5 96.3, 153.35 98.06, 153.12 99.34 C152.9 100.62, 152.44 102.33, 152.0 103.55 C151.55 104.77, 150.81 106.37, 150.15 107.5 C149.5 108.63, 148.49 110.07, 147.65 111.07 C146.82 112.07, 145.57 113.31, 144.57 114.15 C143.58 114.99, 142.13 116.0, 141.0 116.65 C139.88 117.3, 138.28 118.05, 137.05 118.49 C135.83 118.94, 134.13 119.39, 132.84 119.62 C131.56 119.85, 129.81 120.0, 128.5 120.0 C127.2 120.0, 125.44 119.85, 124.16 119.62 C122.88 119.39, 121.18 118.94, 119.95 118.49 C118.73 118.05, 117.13 117.3, 116.0 116.65 C114.88 116.0, 113.43 114.99, 112.43 114.15 C111.44 113.31, 110.19 112.07, 109.35 111.07 C108.52 110.07, 107.5 108.63, 106.85 107.5 C106.2 106.37, 105.46 104.77, 105.01 103.55 C104.57 102.33, 104.11 100.62, 103.88 99.34 C103.66 98.06, 103.5 96.3, 103.5 95.0 C103.5 93.7, 103.66 91.94, 103.88 90.66 C104.11 89.38, 104.57 87.67, 105.01 86.45 C105.46 85.23, 106.2 83.63, 106.85 82.5 C107.5 81.37, 108.52 79.93, 109.35 78.93 C110.19 77.93, 111.44 76.69, 112.43 75.85 C113.43 75.01, 114.88 74.0, 116.0 73.35 C117.13 72.7, 118.73 71.95, 119.95 71.51 C121.18 71.06, 122.88 70.61, 124.16 70.38 C125.44 70.15, 127.2 70.0, 128.5 70.0 C129.81 70.0, 131.56 70.15, 132.84 70.38 C134.13 70.61, 135.83 71.06, 137.05 71.51 C138.28 71.95, 139.88 72.7, 141.0 73.35 C142.13 74.0, 143.58 75.01, 144.57 75.85 C145.57 76.69, 146.82 77.93, 147.65 78.93 C148.49 79.93, 149.5 81.37, 150.15 82.5 C150.81 83.63, 151.55 85.23, 152.0 86.45 C152.44 87.67, 152.9 89.38, 153.12 90.66 C153.35 91.94, 153.45 94.35, 153.5 95.0 C153.56 95.65, 153.56 94.35, 153.5 95.0" stroke="#000000" stroke-width="2.0" fill="none" />
  <path d="M619.52 423.13 C614.33 428.38, 609.14 433.63, 593.64 449.29" stroke="#c43d3d" stroke-width="2.5" fill="none" />
  <path d="M564.8 444.74 C557.51 430.26, 550.21 415.78, 528.42 372.55" stroke="#c43d3d" stroke-width="2.5" fill="none" />
  <path d="M539.88 360.67 C554.82 367.54, 569.77 374.4, 614.39 394.92" stroke="#c43d3d" stroke-width="2.5" fill="none" />
  <path d="M499.44 332.59 C480.89 314.12, 462.33 295.65, 406.91 240.51" stroke="#2f67b2" stroke-width="2.5" fill="none" />
  <path d="M377.9 245.18 C366.95 266.8, 356.0 288.42, 323.31 352.97" stroke="#2f67b2" stroke-width="2.5" fill="none" />
  <path d="M300.53 397.48 C291.05 415.82, 281.56 434.16, 253.24 488.9" stroke="#2f67b2" stroke-width="2.5" fill="none" />
  <path d="M230.36 533.36 C223.55 546.66, 216.73 559.96, 196.39 599.67" stroke="#2f67b2" stroke-width="2.5" fill="none" />
  <path d="M662.1 405.36 C662.1 406.66, 661.95 408.42, 661.72 409.7 C661.5 410.98, 661.04 412.69, 660.6 413.91 C660.15 415.13, 659.41 416.73, 658.76 417.86 C658.1 418.99, 657.09 420.43, 656.26 421.43 C655.42 422.43, 654.17 423.67, 653.17 424.51 C652.18 425.35, 650.73 426.36, 649.6 427.01 C648.48 427.66, 646.88 428.41, 645.66 428.85 C644.43 429.3, 642.73 429.75, 641.45 429.98 C640.16 430.21, 638.41 430.36, 637.1 430.36 C635.8 430.36, 634.05 430.21, 632.76 429.98 C631.48 429.75, 629.78 429.3, 628.55 428.85 C627.33 428.41, 625.73 427.66, 624.6 427.01 C623.48 426.36, 622.03 425.35, 621.04 424.51 C620.04 423.67, 618.79 422.43, 617.95 421.43 C617.12 420.43, 616.11 418.99, 615.45 417.86 C614.8 416.73, 614.06 415.13, 613.61 413.91 C613.17 412.69, 612.71 410.98, 612.48 409.7 C612.26 408.42, 612.1 406.66, 612.1 405.36 C612.1 404.06, 612.26 402.3, 612.48 401.02 C612.71 399.74, 613.17 398.03, 613.61 396.81 C614.06 395.59, 614.8 393.99, 615.45 392.86 C616.11 391.73, 617.12 390.29, 617.95 389.29 C618.79 388.29, 620.04 387.05, 621.04 386.21 C622.03 385.37, 623.48 384.36, 624.6 383.71 C625.73 383.06, 627.33 382.31, 628.55 381.87 C629.78 381.42, 631.48 380.97, 632.76 380.74 C634.05 380.51, 635.8 380.36, 637.1 380.36 C638.41 380.36, 640.16 380.51, 641.45 380.74 C642.73 380.97, 644.43 381.42, 645.66 381.87 C646.88 382.31, 648.48 383.06, 649.6 383.71 C650.73 384.36, 652.18 385.37, 653.17 386.21 C654.17 387.05, 655.42 388.29, 656.26 389.29 C657.09 390.29, 658.1 391.73, 658.76 392.86 C659.41 393.99, 660.15 395.59, 660.6 396.81 C661.04 398.03, 661.5 399.74, 661.72 401.02 C661.95 402.3, 662.05 404.71, 662.1 405.36 C662.16 406.01, 662.16 404.71, 662.1 405.36" stroke="#c43d3d" stroke-width="2.5" fill="none" />
  <path d="M601.05 467.07 C601.05 468.37, 600.9 470.12, 600.67 471.41 C600.45 472.69, 599.99 474.39, 599.55 475.62 C599.1 476.84, 598.36 478.44, 597.7 479.57 C597.05 480.69, 596.04 482.14, 595.2 483.14 C594.37 484.13, 593.12 485.38, 592.12 486.22 C591.13 487.05, 589.68 488.07, 588.55 488.72 C587.43 489.37, 585.83 490.11, 584.6 490.56 C583.38 491.0, 581.68 491.46, 580.39 491.69 C579.11 491.91, 577.36 492.07, 576.05 492.07 C574.75 492.07, 573.0 491.91, 571.71 491.69 C570.43 491.46, 568.73 491.0, 567.5 490.56 C566.28 490.11, 564.68 489.37, 563.55 488.72 C562.43 488.07, 560.98 487.05, 559.98 486.22 C558.99 485.38, 557.74 484.13, 556.9 483.14 C556.07 482.14, 555.05 480.69, 554.4 479.57 C553.75 478.44, 553.01 476.84, 552.56 475.62 C552.12 474.39, 551.66 472.69, 551.43 471.41 C551.21 470.12, 551.05 468.37, 551.05 467.07 C551.05 465.76, 551.21 464.01, 551.43 462.72 C551.66 461.44, 552.12 459.74, 552.56 458.52 C553.01 457.29, 553.75 455.69, 554.4 454.57 C555.05 453.44, 556.07 451.99, 556.9 451.0 C557.74 450.0, 558.99 448.75, 559.98 447.92 C560.98 447.08, 562.43 446.07, 563.55 445.42 C564.68 444.76, 566.28 444.02, 567.5 443.57 C568.73 443.13, 570.43 442.67, 571.71 442.45 C573.0 442.22, 574.75 442.07, 576.05 442.07 C577.36 442.07, 579.11 442.22, 580.39 442.45 C581.68 442.67, 583.38 443.13, 584.6 443.57 C585.83 444.02, 587.43 444.76, 588.55 445.42 C589.68 446.07, 591.13 447.08, 592.12 447.92 C593.12 448.75, 594.37 450.0, 595.2 451.0 C596.04 451.99, 597.05 453.44, 597.7 454.57 C598.36 455.69, 599.1 457.29, 599.55 458.52 C599.99 459.74, 600.45 461.44, 600.67 462.72 C600.9 464.01, 601.0 466.41, 601.05 467.07 C601.11 467.72, 601.11 466.41, 601.05 467.07" stroke="#c43d3d" stroke-width="2.5" fill="none" />
  <path d="M542.17 350.22 C542.17 351.53, 542.01 353.28, 541.79 354.56 C541.56 355.85, 541.1 357.55, 540.66 358.77 C540.21 360.0, 539.47 361.6, 538.82 362.72 C538.17 363.85, 537.15 365.3, 536.32 366.29 C535.48 367.29, 534.23 368.54, 533.24 369.37 C532.24 370.21, 530.79 371.22, 529.67 371.87 C528.54 372.53, 526.94 373.27, 525.72 373.72 C524.49 374.16, 522.79 374.62, 521.51 374.84 C520.22 375.07, 518.47 375.22, 517.17 375.22 C515.86 375.22, 514.11 375.07, 512.82 374.84 C511.54 374.62, 509.84 374.16, 508.62 373.72 C507.39 373.27, 505.79 372.53, 504.67 371.87 C503.54 371.22, 502.09 370.21, 501.1 369.37 C500.1 368.54, 498.85 367.29, 498.01 366.29 C497.18 365.3, 496.17 363.85, 495.52 362.72 C494.86 361.6, 494.12 360.0, 493.67 358.77 C493.23 357.55, 492.77 355.85, 492.55 354.56 C492.32 353.28, 492.17 351.53, 492.17 350.22 C492.17 348.92, 492.32 347.17, 492.55 345.88 C492.77 344.6, 493.23 342.9, 493.67 341.67 C494.12 340.45, 494.86 338.85, 495.52 337.72 C496.17 336.6, 497.18 335.15, 498.01 334.15 C498.85 333.16, 500.1 331.91, 501.1 331.07 C502.09 330.24, 503.54 329.22, 504.67 328.57 C505.79 327.92, 507.39 327.18, 508.62 326.73 C509.84 326.29, 511.54 325.83, 512.82 325.6 C514.11 325.38, 515.86 325.22, 517.17 325.22 C518.47 325.22, 520.22 325.38, 521.51 325.6 C522.79 325.83, 524.49 326.29, 525.72 326.73 C526.94 327.18, 528.54 327.92, 529.67 328.57 C530.79 329.22, 532.24 330.24, 533.24 331.07 C534.23 331.91, 535.48 333.16, 536.32 334.15 C537.15 335.15, 538.17 336.6, 538.82 337.72 C539.47 338.85, 540.21 340.45, 540.66 341.67 C541.1 342.9, 541.56 344.6, 541.79 345.88 C542.01 347.17, 542.11 349.57, 542.17 350.22 C542.22 350.87, 542.22 349.57, 542.17 350.22" stroke="#c43d3d" stroke-width="2.5" fill="none" />
  <path d="M542.17 350.22 C542.17 351.53, 542.01 353.28, 541.79 354.56 C541.56 355.85, 541.1 357.55, 540.66 358.77 C540.21 360.0, 539.47 361.6, 538.82 362.72 C538.17 363.85, 537.15 365.3, 536.32 366.29 C535.48 367.29, 534.23 368.54, 533.24 369.37 C532.24 370.21, 530.79 371.22, 529.67 371.87 C528.54 372.53, 526.94 373.27, 525.72 373.72 C524.49 374.16, 522.79 374.62, 521.51 374.84 C520.22 375.07, 518.47 375.22, 517.17 375.22 C515.86 375.22, 514.11 375.07, 512.82 374.84 C511.54 374.62, 509.84 374.16, 508.62 373.72 C507.39 373.27, 505.79 372.53, 504.67 371.87 C503.54 371.22, 502.09 370.21, 501.1 369.37 C500.1 368.54, 498.85 367.29, 498.01 366.29 C497.18 365.3, 496.17 363.85, 495.52 362.72 C494.86 361.6, 494.12 360.0, 493.67 358.77 C493.23 357.55, 492.77 355.85, 492.55 354.56 C492.32 353.28, 492.17 351.53, 492.17 350.22 C492.17 348.92, 492.32 347.17, 492.55 345.88 C492.77 344.6, 493.23 342.9, 493.67 341.67 C494.12 340.45, 494.86 338.85, 495.52 337.72 C496.17 336.6, 497.18 335.15, 498.01 334.15 C498.85 333.16, 500.1 331.91, 501.1 331.07 C502.09 330.24, 503.54 329.22, 504.67 328.57 C505.79 327.92, 507.39 327.18, 508.62 326.73 C509.84 326.29, 511.54 325.83, 512.82 325.6 C514.11 325.38, 515.86 325.22, 517.17 325.22 C518.47 325.22, 520.22 325.38, 521.51 325.6 C522.79 325.83, 524.49 326.29, 525.72 326.73 C526.94 327.18, 528.54 327.92, 529.67 328.57 C530.79 329.22, 532.24 330.24, 533.24 331.07 C534.23 331.91, 535.48 333.16, 536.32 334.15 C537.15 335.15, 538.17 336.6, 538.82 337.72 C539.47 338.85, 540.21 340.45, 540.66 341.67 C541.1 342.9, 541.56 344.6, 541.79 345.88 C542.01 347.17, 542.11 349.57, 542.17 350.22 C542.22 350.87, 542.22 349.57, 542.17 350.22" stroke="#2f67b2" stroke-width="2.5" fill="none" />
  <path d="M414.19 222.88 C414.19 224.18, 414.04 225.94, 413.81 227.22 C413.59 228.5, 413.13 230.21, 412.69 231.43 C412.24 232.65, 411.49 234.25, 410.84 235.38 C410.19 236.51, 409.18 237.95, 408.34 238.95 C407.51 239.95, 406.26 241.19, 405.26 242.03 C404.26 242.87, 402.82 243.88, 401.69 244.53 C400.57 245.18, 398.97 245.93, 397.74 246.37 C396.52 246.82, 394.82 247.27, 393.53 247.5 C392.25 247.73, 390.5 247.88, 389.19 247.88 C387.89 247.88, 386.13 247.73, 384.85 247.5 C383.57 247.27, 381.87 246.82, 380.64 246.37 C379.42 245.93, 377.82 245.18, 376.69 244.53 C375.57 243.88, 374.12 242.87, 373.12 242.03 C372.13 241.19, 370.88 239.95, 370.04 238.95 C369.2 237.95, 368.19 236.51, 367.54 235.38 C366.89 234.25, 366.15 232.65, 365.7 231.43 C365.26 230.21, 364.8 228.5, 364.57 227.22 C364.35 225.94, 364.19 224.18, 364.19 222.88 C364.19 221.58, 364.35 219.82, 364.57 218.54 C364.8 217.26, 365.26 215.55, 365.7 214.33 C366.15 213.11, 366.89 211.51, 367.54 210.38 C368.19 209.25, 369.2 207.81, 370.04 206.81 C370.88 205.81, 372.13 204.57, 373.12 203.73 C374.12 202.89, 375.57 201.88, 376.69 201.23 C377.82 200.58, 379.42 199.83, 380.64 199.39 C381.87 198.94, 383.57 198.49, 384.85 198.26 C386.13 198.03, 387.89 197.88, 389.19 197.88 C390.5 197.88, 392.25 198.03, 393.53 198.26 C394.82 198.49, 396.52 198.94, 397.74 199.39 C398.97 199.83, 400.57 200.58, 401.69 201.23 C402.82 201.88, 404.26 202.89, 405.26 203.73 C406.26 204.57, 407.51 205.81, 408.34 206.81 C409.18 207.81, 410.19 209.25, 410.84 210.38 C411.49 211.51, 412.24 213.11, 412.69 214.33 C413.13 215.55, 413.59 217.26, 413.81 218.54 C414.04 219.82, 414.14 222.23, 414.19 222.88 C414.25 223.53, 414.25 222.23, 414.19 222.88" stroke="#2f67b2" stroke-width="2.5" fill="none" />
  <path d="M337.02 375.28 C337.02 376.58, 336.86 378.33, 336.64 379.62 C336.41 380.9, 335.95 382.6, 335.51 383.83 C335.06 385.05, 334.32 386.65, 333.67 387.78 C333.02 388.9, 332.0 390.35, 331.17 391.35 C330.33 392.34, 329.08 393.59, 328.09 394.43 C327.09 395.26, 325.64 396.28, 324.52 396.93 C323.39 397.58, 321.79 398.32, 320.57 398.77 C319.34 399.21, 317.64 399.67, 316.36 399.9 C315.08 400.12, 313.32 400.28, 312.02 400.28 C310.71 400.28, 308.96 400.12, 307.68 399.9 C306.39 399.67, 304.69 399.21, 303.47 398.77 C302.24 398.32, 300.64 397.58, 299.52 396.93 C298.39 396.28, 296.94 395.26, 295.95 394.43 C294.95 393.59, 293.7 392.34, 292.87 391.35 C292.03 390.35, 291.02 388.9, 290.37 387.78 C289.71 386.65, 288.97 385.05, 288.52 383.83 C288.08 382.6, 287.62 380.9, 287.4 379.62 C287.17 378.33, 287.02 376.58, 287.02 375.28 C287.02 373.97, 287.17 372.22, 287.4 370.93 C287.62 369.65, 288.08 367.95, 288.52 366.73 C288.97 365.5, 289.71 363.9, 290.37 362.78 C291.02 361.65, 292.03 360.2, 292.87 359.21 C293.7 358.21, 294.95 356.96, 295.95 356.12 C296.94 355.29, 298.39 354.28, 299.52 353.62 C300.64 352.97, 302.24 352.23, 303.47 351.78 C304.69 351.34, 306.39 350.88, 307.68 350.66 C308.96 350.43, 310.71 350.28, 312.02 350.28 C313.32 350.28, 315.08 350.43, 316.36 350.66 C317.64 350.88, 319.34 351.34, 320.57 351.78 C321.79 352.23, 323.39 352.97, 324.52 353.62 C325.64 354.28, 327.09 355.29, 328.09 356.12 C329.08 356.96, 330.33 358.21, 331.17 359.21 C332.0 360.2, 333.02 361.65, 333.67 362.78 C334.32 363.9, 335.06 365.5, 335.51 366.73 C335.95 367.95, 336.41 369.65, 336.64 370.93 C336.86 372.22, 336.96 374.62, 337.02 375.28 C337.07 375.93, 337.07 374.62, 337.02 375.28" stroke="#2f67b2" stroke-width="2.5" fill="none" />
  <path d="M266.76 511.11 C266.76 512.41, 266.61 514.17, 266.38 515.45 C266.15 516.73, 265.7 518.43, 265.25 519.66 C264.81 520.88, 264.06 522.48, 263.41 523.61 C262.76 524.73, 261.75 526.18, 260.91 527.18 C260.07 528.17, 258.83 529.42, 257.83 530.26 C256.83 531.09, 255.39 532.11, 254.26 532.76 C253.13 533.41, 251.53 534.15, 250.31 534.6 C249.09 535.04, 247.38 535.5, 246.1 535.73 C244.82 535.95, 243.06 536.11, 241.76 536.11 C240.46 536.11, 238.7 535.95, 237.42 535.73 C236.14 535.5, 234.43 535.04, 233.21 534.6 C231.98 534.15, 230.39 533.41, 229.26 532.76 C228.13 532.11, 226.69 531.09, 225.69 530.26 C224.69 529.42, 223.44 528.17, 222.61 527.18 C221.77 526.18, 220.76 524.73, 220.11 523.61 C219.46 522.48, 218.71 520.88, 218.27 519.66 C217.82 518.43, 217.36 516.73, 217.14 515.45 C216.91 514.17, 216.76 512.41, 216.76 511.11 C216.76 509.8, 216.91 508.05, 217.14 506.77 C217.36 505.48, 217.82 503.78, 218.27 502.56 C218.71 501.33, 219.46 499.73, 220.11 498.61 C220.76 497.48, 221.77 496.03, 222.61 495.04 C223.44 494.04, 224.69 492.79, 225.69 491.96 C226.69 491.12, 228.13 490.11, 229.26 489.46 C230.39 488.8, 231.98 488.06, 233.21 487.61 C234.43 487.17, 236.14 486.71, 237.42 486.49 C238.7 486.26, 240.46 486.11, 241.76 486.11 C243.06 486.11, 244.82 486.26, 246.1 486.49 C247.38 486.71, 249.09 487.17, 250.31 487.61 C251.53 488.06, 253.13 488.8, 254.26 489.46 C255.39 490.11, 256.83 491.12, 257.83 491.96 C258.83 492.79, 260.07 494.04, 260.91 495.04 C261.75 496.03, 262.76 497.48, 263.41 498.61 C264.06 499.73, 264.81 501.33, 265.25 502.56 C265.7 503.78, 266.15 505.48, 266.38 506.77 C266.61 508.05, 266.7 510.46, 266.76 511.11 C266.82 511.76, 266.82 510.46, 266.76 511.11" stroke="#2f67b2" stroke-width="2.5" fill="none" />
  <path d="M209.99 621.92 C209.99 623.22, 209.84 624.98, 209.61 626.26 C209.38 627.54, 208.93 629.25, 208.48 630.47 C208.04 631.69, 207.29 633.29, 206.64 634.42 C205.99 635.55, 204.98 636.99, 204.14 637.99 C203.3 638.99, 202.06 640.23, 201.06 641.07 C200.06 641.91, 198.62 642.92, 197.49 643.57 C196.36 644.22, 194.77 644.97, 193.54 645.41 C192.32 645.86, 190.61 646.31, 189.33 646.54 C188.05 646.77, 186.29 646.92, 184.99 646.92 C183.69 646.92, 181.93 646.77, 180.65 646.54 C179.37 646.31, 177.66 645.86, 176.44 645.41 C175.22 644.97, 173.62 644.22, 172.49 643.57 C171.36 642.92, 169.92 641.91, 168.92 641.07 C167.92 640.23, 166.68 638.99, 165.84 637.99 C165.0 636.99, 163.99 635.55, 163.34 634.42 C162.69 633.29, 161.94 631.69, 161.5 630.47 C161.05 629.25, 160.6 627.54, 160.37 626.26 C160.14 624.98, 159.99 623.22, 159.99 621.92 C159.99 620.62, 160.14 618.86, 160.37 617.58 C160.6 616.3, 161.05 614.59, 161.5 613.37 C161.94 612.15, 162.69 610.55, 163.34 609.42 C163.99 608.29, 165.0 606.85, 165.84 605.85 C166.68 604.85, 167.92 603.61, 168.92 602.77 C169.92 601.93, 171.36 600.92, 172.49 600.27 C173.62 599.62, 175.22 598.87, 176.44 598.43 C177.66 597.98, 179.37 597.53, 180.65 597.3 C181.93 597.07, 183.69 596.92, 184.99 596.92 C186.29 596.92, 188.05 597.07, 189.33 597.3 C190.61 597.53, 192.32 597.98, 193.54 598.43 C194.77 598.87, 196.36 599.62, 197.49 600.27 C198.62 600.92, 200.06 601.93, 201.06 602.77 C202.06 603.61, 203.3 604.85, 204.14 605.85 C204.98 606.85, 205.99 608.29, 206.64 609.42 C207.29 610.55, 208.04 612.15, 208.48 613.37 C208.93 614.59, 209.38 616.3, 209.61 617.58 C209.84 618.86, 209.93 621.27, 209.99 621.92 C210.05 622.57, 210.05 621.27, 209.99 621.92" stroke="#2f67b2" stroke-width="2.5" fill="none" />
  <text x="637.1" y="405.36" fill="#000000" font-size="20" font-family="Comic Neue, AR PL KaitiM GB, Noto Sans CJK SC, Microsoft YaHei, sans-serif" font-weight="normal" text-anchor="middle" dominant-baseline="central" style="pointer-events: none; user-select: none;">A</text>
  <text x="637.1" y="441.16" fill="#000000" font-size="12" font-family="Comic Neue, AR PL KaitiM GB, Noto Sans CJK SC, Microsoft YaHei, sans-serif" font-weight="normal" text-anchor="middle" dominant-baseline="central" style="pointer-events: none; user-select: none;">1</text>
  <text x="576.05" y="467.07" fill="#000000" font-size="20" font-family="Comic Neue, AR PL KaitiM GB, Noto Sans CJK SC, Microsoft YaHei, sans-serif" font-weight="normal" text-anchor="middle" dominant-baseline="central" style="pointer-events: none; user-select: none;">B</text>
  <text x="576.05" y="502.87" fill="#000000" font-size="12" font-family="Comic Neue, AR PL KaitiM GB, Noto Sans CJK SC, Microsoft YaHei, sans-serif" font-weight="normal" text-anchor="middle" dominant-baseline="central" style="pointer-events: none; user-select: none;">2</text>
  <text x="517.17" y="350.22" fill="#000000" font-size="20" font-family="Comic Neue, AR PL KaitiM GB, Noto Sans CJK SC, Microsoft YaHei, sans-serif" font-weight="normal" text-anchor="middle" dominant-baseline="central" style="pointer-events: none; user-select: none;">C</text>
  <text x="517.17" y="386.02" fill="#000000" font-size="12" font-family="Comic Neue, AR PL KaitiM GB, Noto Sans CJK SC, Microsoft YaHei, sans-serif" font-weight="normal" text-anchor="middle" dominant-baseline="central" style="pointer-events: none; user-select: none;">3</text>
  <text x="389.19" y="222.88" fill="#000000" font-size="20" font-family="Comic Neue, AR PL KaitiM GB, Noto Sans CJK SC, Microsoft YaHei, sans-serif" font-weight="normal" text-anchor="middle" dominant-baseline="central" style="pointer-events: none; user-select: none;">D</text>
  <text x="389.19" y="258.68" fill="#000000" font-size="12" font-family="Comic Neue, AR PL KaitiM GB, Noto Sans CJK SC, Microsoft YaHei, sans-serif" font-weight="normal" text-anchor="middle" dominant-baseline="central" style="pointer-events: none; user-select: none;">4</text>
  <text x="312.02" y="375.28" fill="#000000" font-size="20" font-family="Comic Neue, AR PL KaitiM GB, Noto Sans CJK SC, Microsoft YaHei, sans-serif" font-weight="normal" text-anchor="middle" dominant-baseline="central" style="pointer-events: none; user-select: none;">E</text>
  <text x="312.02" y="411.08" fill="#000000" font-size="12" font-family="Comic Neue, AR PL KaitiM GB, Noto Sans CJK SC, Microsoft YaHei, sans-serif" font-weight="normal" text-anchor="middle" dominant-baseline="central" style="pointer-events: none; user-select: none;">5</text>
  <text x="241.76" y="511.11" fill="#000000" font-size="20" font-family="Comic Neue, AR PL KaitiM GB, Noto Sans CJK SC, Microsoft YaHei, sans-serif" font-weight="normal" text-anchor="middle" dominant-baseline="central" style="pointer-events: none; user-select: none;">F</text>
  <text x="241.76" y="546.91" fill="#000000" font-size="12" font-family="Comic Neue, AR PL KaitiM GB, Noto Sans CJK SC, Microsoft YaHei, sans-serif" font-weight="normal" text-anchor="middle" dominant-baseline="central" style="pointer-events: none; user-select: none;">6</text>
  <text x="184.99" y="621.92" fill="#000000" font-size="20" font-family="Comic Neue, AR PL KaitiM GB, Noto Sans CJK SC, Microsoft YaHei, sans-serif" font-weight="normal" text-anchor="middle" dominant-baseline="central" style="pointer-events: none; user-select: none;">G</text>
  <text x="184.99" y="657.72" fill="#000000" font-size="12" font-family="Comic Neue, AR PL KaitiM GB, Noto Sans CJK SC, Microsoft YaHei, sans-serif" font-weight="normal" text-anchor="middle" dominant-baseline="central" style="pointer-events: none; user-select: none;">7</text>
  <text x="213.99" y="195.57" fill="#000000" font-size="20" font-family="Comic Neue, AR PL KaitiM GB, Noto Sans CJK SC, Microsoft YaHei, sans-serif" font-weight="normal" text-anchor="middle" dominant-baseline="central" style="pointer-events: none; user-select: none;">H</text>
  <text x="213.99" y="231.37" fill="#000000" font-size="12" font-family="Comic Neue, AR PL KaitiM GB, Noto Sans CJK SC, Microsoft YaHei, sans-serif" font-weight="normal" text-anchor="middle" dominant-baseline="central" style="pointer-events: none; user-select: none;">8</text>
  <text x="95" y="251.31" fill="#000000" font-size="20" font-family="Comic Neue, AR PL KaitiM GB, Noto Sans CJK SC, Microsoft YaHei, sans-serif" font-weight="normal" text-anchor="middle" dominant-baseline="central" style="pointer-events: none; user-select: none;">I</text>
  <text x="95" y="287.11" fill="#000000" font-size="12" font-family="Comic Neue, AR PL KaitiM GB, Noto Sans CJK SC, Microsoft YaHei, sans-serif" font-weight="normal" text-anchor="middle" dominant-baseline="central" style="pointer-events: none; user-select: none;">9</text>
  <text x="128.5" y="95" fill="#000000" font-size="20" font-family="Comic Neue, AR PL KaitiM GB, Noto Sans CJK SC, Microsoft YaHei, sans-serif" font-weight="normal" text-anchor="middle" dominant-baseline="central" style="pointer-events: none; user-select: none;">J</text>
  <text x="128.5" y="130.8" fill="#000000" font-size="12" font-family="Comic Neue, AR PL KaitiM GB, Noto Sans CJK SC, Microsoft YaHei, sans-serif" font-weight="normal" text-anchor="middle" dominant-baseline="central" style="pointer-events: none; user-select: none;">10</text>
</svg>
